<?xml version="1.0" encoding="UTF-8" standalone="no"?>
<!-- Created with Inkscape (http://www.inkscape.org/) -->

<svg
   xmlns:dc="http://purl.org/dc/elements/1.1/"
   xmlns:cc="http://creativecommons.org/ns#"
   xmlns:rdf="http://www.w3.org/1999/02/22-rdf-syntax-ns#"
   xmlns:svg="http://www.w3.org/2000/svg"
   xmlns="http://www.w3.org/2000/svg"
   xmlns:sodipodi="http://sodipodi.sourceforge.net/DTD/sodipodi-0.dtd"
   xmlns:inkscape="http://www.inkscape.org/namespaces/inkscape"
   width="500"
   height="500"
   id="svg2"
   version="1.1"
   inkscape:version="0.48.4 r9939"
   sodipodi:docname="logo.svg"
   inkscape:export-filename="\\vmware-host\Shared Folders\Desktop\logo32.png"
   inkscape:export-xdpi="5.7600002"
   inkscape:export-ydpi="5.7600002">
  <defs
     id="defs4" />
  <sodipodi:namedview
     id="base"
     pagecolor="#ffffff"
     bordercolor="#666666"
     borderopacity="1.0"
     inkscape:pageopacity="0.0"
     inkscape:pageshadow="2"
     inkscape:zoom="1.238"
     inkscape:cx="123.99031"
     inkscape:cy="250"
     inkscape:document-units="px"
     inkscape:current-layer="layer1"
     showgrid="false"
     inkscape:window-width="1280"
     inkscape:window-height="737"
     inkscape:window-x="-8"
     inkscape:window-y="-8"
     inkscape:window-maximized="1">
    <inkscape:grid
       type="xygrid"
       id="grid2985"
       empspacing="5"
       visible="true"
       enabled="true"
       snapvisiblegridlinesonly="true" />
  </sodipodi:namedview>
  <metadata
     id="metadata7">
    <rdf:RDF>
      <cc:Work
         rdf:about="">
        <dc:format>image/svg+xml</dc:format>
        <dc:type
           rdf:resource="http://purl.org/dc/dcmitype/StillImage" />
        <dc:title></dc:title>
      </cc:Work>
    </rdf:RDF>
  </metadata>
  <g
     inkscape:label="Layer 1"
     inkscape:groupmode="layer"
     id="layer1"
     transform="translate(0,-552.36218)">
    <path
       sodipodi:type="arc"
       style="fill:#585459;fill-opacity:1;stroke:none"
       id="path2987"
       sodipodi:cx="250"
       sodipodi:cy="250"
       sodipodi:rx="250"
       sodipodi:ry="250"
       d="M 500,250 C 500,388.07119 388.07119,500 250,500 111.92881,500 0,388.07119 0,250 0,111.92881 111.92881,0 250,0 388.07119,0 500,111.92881 500,250 z"
       transform="translate(0,552.36218)" />
    <g
       style="font-size:22px;font-style:normal;font-variant:normal;font-weight:normal;font-stretch:normal;line-height:125%;letter-spacing:0px;word-spacing:0px;fill:#e7e0d7;fill-opacity:1;stroke:none;font-family:Gotham Rounded Medium;-inkscape-font-specification:Gotham Rounded Medium"
       id="text3757">
      <path
         d="m 245.11435,790.19983 3.80859,23.29101 c -7.42195,1.5625 -14.06256,2.34375 -19.92187,2.34375 -9.57037,0 -16.99223,-1.51367 -22.26563,-4.54101 -5.27347,-3.02734 -8.9844,-7.00683 -11.13281,-11.93848 -2.14846,-4.93162 -3.22268,-15.30758 -3.22266,-31.12793 l 0,-89.50195 -19.33593,0 0,-20.50781 19.33593,0 0,-38.52539 26.22071,-15.82032 0,54.34571 26.51367,0 0,20.50781 -26.51367,0 0,90.9668 c -5e-5,7.51956 0.46381,12.35354 1.3916,14.50195 0.92768,2.14846 2.44135,3.85745 4.54101,5.12695 2.09956,1.26956 5.10248,1.90432 9.00879,1.9043 2.92962,2e-5 6.78704,-0.34177 11.57227,-1.02539 z"
         style="font-size:300px;font-family:Minion Pro;-inkscape-font-specification:Minion Pro;fill:#e7e0d7;fill-opacity:1"
         id="path3788" />
    </g>
    <g
       style="font-size:22px;font-style:normal;font-variant:normal;font-weight:normal;font-stretch:normal;line-height:125%;letter-spacing:0px;word-spacing:0px;fill:#97b7bf;fill-opacity:1;stroke:none;font-family:GillSans;-inkscape-font-specification:GillSans"
       id="text3761">
      <path
         d="m 275.784,733.69171 0,-30.61523 26.36718,0 0,30.61523 z m -33.39844,244.48242 4.98047,-22.41211 c 5.27344,1.36715 9.42383,2.05075 12.45117,2.05079 5.37108,-4e-5 9.37499,-1.78227 12.01172,-5.34668 2.6367,-3.56449 3.95506,-12.47561 3.95508,-26.7334 l 0,-163.47657 26.36718,0 0,164.0625 c -4e-5,19.1406 -2.49027,32.47067 -7.4707,39.99024 -6.34769,9.76557 -16.89455,14.64837 -31.64062,14.64844 -7.12891,-7e-5 -14.01367,-0.9278 -20.6543,-2.78321 z"
         style="font-size:300px;fill:#97b7bf;font-family:Minion Pro;-inkscape-font-specification:Minion Pro"
         id="path3791" />
    </g>
  </g>
</svg>
